<svg xmlns="http://www.w3.org/2000/svg" xmlns:xlink="http://www.w3.org/1999/xlink" viewBox="0 0 48 48"><rect width="48" height="48" rx="10" fill="#F3F4F6"/><svg x="4" y="4" width="40" height="40" viewBox="0 0 171 47" preserveAspectRatio="xMidYMid meet"><g clip-path="url(#crclip0_22178_49)"><mask id="cra" style="mask-type:luminance" maskUnits="userSpaceOnUse" x="0" y="-1" width="55" height="48"><path d="M53.935 46.3l-.037-.03C46.885 40.864 40.79 34.023 36.086 25.88c-4.7-8.145-7.575-16.838-8.752-25.612a.31.31 0 00-.616 0c-1.176 8.774-4.05 17.467-8.752 25.612C13.264 34.024 7.168 40.865.154 46.27l-.036.03a.303.303 0 00-.065.412c.09.135.271.172.408.093 7.757-4.676 16.848-7.368 26.566-7.368a51.301 51.301 0 0126.566 7.368c.138.079.316.042.408-.093a.303.303 0 00-.066-.411z" fill="#fff"/></mask><g mask="url(#cra)"><path d="M53.935 46.3l-.037-.03C46.885 40.864 40.79 34.023 36.086 25.88c-4.7-8.145-7.575-16.838-8.752-25.612a.31.31 0 00-.616 0c-1.176 8.774-4.05 17.467-8.752 25.612C13.264 34.024 7.168 40.865.154 46.27l-.036.03a.303.303 0 00-.065.412c.09.135.271.172.408.093 7.757-4.676 16.848-7.368 26.566-7.368a51.301 51.301 0 0126.566 7.368c.138.079.316.042.408-.093a.303.303 0 00-.066-.411z" fill="url(#crpaint0_linear_22178_49)"/></g><path d="M163.412 29.802c0-1.994-1.178-2.958-3.639-2.958h-11.662v5.985h11.732c2.425 0 3.569-1.066 3.569-2.958v-.069zm-2.842-8.254c6.827 0 10.431 2.476 10.431 8.427v.102c0 5.745-3.639 8.256-10.396 8.256h-21.997V12.777h29.267v5.572h-19.764v3.199h12.459zM77.056 28.117l3.391-7.998h1.979l3.362 7.998h-8.732zm-2.114-15.34l-12.37 25.556h10.187l1.906-4.54h13.48l1.905 4.54h10.223L87.729 12.777H74.941zM101.346 19.071h10.915v19.262h9.321V19.07h10.881v-6.294h-31.117v6.294z" fill="#282F37"/></g><defs><linearGradient id="crpaint0_linear_22178_49" x1="27.027" y1="8.212" x2="27.027" y2="47.037" gradientUnits="userSpaceOnUse"><stop stop-color="#F4711F"/><stop offset="1" stop-color="#ED4E27"/></linearGradient><clipPath id="crclip0_22178_49"><path fill="#fff" d="M0 0h171v46.845H0z"/></clipPath></defs></svg></svg>